<?xml version="1.0" encoding="utf-8"?>
<!-- Generator: Adobe Illustrator 21.0.0, SVG Export Plug-In . SVG Version: 6.00 Build 0)  -->
<svg version="1.1" id="Layer_1" xmlns="http://www.w3.org/2000/svg" xmlns:xlink="http://www.w3.org/1999/xlink" x="0px" y="0px"
	 viewBox="0 0 50 50" style="enable-background:new 0 0 50 50;" xml:space="preserve">
<path style="fill:#303338;" d="M47.74,41.15l-8.82-8.26c1.58-2.5,2.66-5.36,3.02-8.49c1.28-11.09-6.71-21.16-17.81-22.44
	S2.97,8.68,1.7,19.78C0.42,30.87,8.41,40.94,19.5,42.21c4.9,0.56,9.59-0.68,13.42-3.2l8.97,8.39c0.7,0.65,1.55,1.02,2.43,1.13
	c1.3,0.15,2.65-0.3,3.62-1.33C49.56,45.48,49.47,42.77,47.74,41.15z M20.48,33.71c-6.41-0.74-11.02-6.55-10.28-12.96
	c0.74-6.41,6.55-11.02,12.96-10.28s11.02,6.55,10.28,12.96C32.7,29.83,26.89,34.45,20.48,33.71z"/>
</svg>
